<?xml version="1.0" encoding="utf-8"?>
<!-- Uploaded to: SVG Repo, www.svgrepo.com, Generator: SVG Repo Mixer Tools -->
<svg width="800px" height="800px" viewBox="0 0 1024 1024" fill="#000000" class="icon"  version="1.1" xmlns="http://www.w3.org/2000/svg"><path d="M72.668 767.89c-4.42 0-8.074-3.574-8.074-7.996 0-4.418 3.498-7.996 7.902-7.996h0.172a8.002 8.002 0 0 1 7.996 7.996 8 8 0 0 1-7.996 7.996zM72.668 639.946c-4.42 0-8.074-3.574-8.074-7.996 0-4.418 3.498-7.996 7.902-7.996h0.172a8.002 8.002 0 0 1 7.996 7.996 8 8 0 0 1-7.996 7.996zM72.668 703.918c-4.42 0-8.074-3.574-8.074-7.996 0-4.418 3.498-7.996 7.902-7.996h0.172a8.002 8.002 0 0 1 7.996 7.996 8 8 0 0 1-7.996 7.996zM104.654 735.906c-4.42 0-8.074-3.578-8.074-7.996 0-4.422 3.498-7.996 7.902-7.996h0.172a8 8 0 0 1 7.998 7.996 8.004 8.004 0 0 1-7.998 7.996zM104.654 799.878c-4.42 0-8.074-3.578-8.074-7.996 0-4.422 3.498-7.996 7.902-7.996h0.172a8 8 0 0 1 7.998 7.996 8.004 8.004 0 0 1-7.998 7.996zM104.654 671.934c-4.42 0-8.074-3.578-8.074-7.996 0-4.422 3.498-8 7.902-8h0.172a8.006 8.006 0 0 1 7.998 8 8.004 8.004 0 0 1-7.998 7.996zM232.602 735.906c-4.42 0-8.076-3.578-8.076-7.996 0-4.422 3.5-7.996 7.904-7.996h0.172a8 8 0 0 1 7.996 7.996 8.002 8.002 0 0 1-7.996 7.996zM264.588 767.89c-4.42 0-8.074-3.574-8.074-7.996 0-4.418 3.498-7.996 7.902-7.996h0.172a8.002 8.002 0 0 1 7.996 7.996 8 8 0 0 1-7.996 7.996zM232.602 799.878c-4.42 0-8.076-3.578-8.076-7.996 0-4.422 3.5-7.996 7.904-7.996h0.172a8 8 0 0 1 7.996 7.996 8.002 8.002 0 0 1-7.996 7.996zM264.588 639.946c-4.42 0-8.074-3.574-8.074-7.996 0-4.418 3.498-7.996 7.902-7.996h0.172a8.002 8.002 0 0 1 7.996 7.996 8 8 0 0 1-7.996 7.996zM232.602 671.934c-4.42 0-8.076-3.578-8.076-7.996 0-4.422 3.5-8 7.904-8h0.172a8.004 8.004 0 0 1 7.996 8 8.002 8.002 0 0 1-7.996 7.996zM264.588 703.918c-4.42 0-8.074-3.574-8.074-7.996 0-4.418 3.498-7.996 7.902-7.996h0.172a8.002 8.002 0 0 1 7.996 7.996 8 8 0 0 1-7.996 7.996zM472.016 831.868h-111.954a7.994 7.994 0 0 1-7.996-8V200.13a7.99 7.99 0 0 1 7.996-7.996h111.954a7.992 7.992 0 0 1 7.998 7.996v623.738c0 4.422-3.578 8-7.998 8z m-103.956-15.996h95.958V208.128H368.06v607.744zM1015.788 831.868H504.002a7.994 7.994 0 0 1-7.996-8V312.084a7.99 7.99 0 0 1 7.996-7.996h511.786a7.992 7.992 0 0 1 7.998 7.996v511.784c0 4.422-3.578 8-7.998 8zM512 815.872h495.792V320.08H512v495.792z" fill="" /><path d="M312.084 831.868H24.206a7.994 7.994 0 0 1-7.998-8V599.96a7.994 7.994 0 0 1 7.998-7.996h287.878a7.992 7.992 0 0 1 7.996 7.996v223.906a7.994 7.994 0 0 1-7.996 8.002z m-279.882-15.996h271.884V607.96H32.202v207.912z" fill="" /><path d="M328.076 607.96H8.21a7.994 7.994 0 0 1-7.996-8v-63.972a7.992 7.992 0 0 1 7.996-7.996h319.866a7.992 7.992 0 0 1 7.996 7.996v63.972c0 4.422-3.576 8-7.996 8zM16.208 591.964H320.08v-47.976H16.208v47.976zM384.052 807.876a7.976 7.976 0 0 1-5.654-2.344 7.988 7.988 0 0 1 0-11.304l63.974-63.992a7.994 7.994 0 1 1 11.306 11.308l-63.972 63.988a7.968 7.968 0 0 1-5.654 2.344zM384.052 743.902a7.994 7.994 0 0 1-5.654-13.652l63.974-63.988a7.994 7.994 0 1 1 11.306 11.308l-63.972 63.988a7.96 7.96 0 0 1-5.654 2.344zM384.052 679.93a7.994 7.994 0 0 1-5.654-13.652l63.974-63.988a7.994 7.994 0 1 1 11.306 11.308l-63.972 63.988a7.968 7.968 0 0 1-5.654 2.344zM384.052 615.958a7.994 7.994 0 0 1-5.654-13.652l63.974-63.988a7.992 7.992 0 0 1 11.306 0 7.994 7.994 0 0 1 0 11.308l-63.972 63.988a7.968 7.968 0 0 1-5.654 2.344zM384.052 551.984a7.994 7.994 0 0 1-5.654-13.652l63.974-63.99a7.992 7.992 0 0 1 11.306 0 7.994 7.994 0 0 1 0 11.308l-63.972 63.99a7.96 7.96 0 0 1-5.654 2.344zM384.052 488.01a7.994 7.994 0 0 1-5.654-13.65l63.974-63.988a7.992 7.992 0 0 1 11.306 0 7.994 7.994 0 0 1 0 11.308l-63.972 63.988a7.974 7.974 0 0 1-5.654 2.342zM384.052 424.036a7.994 7.994 0 0 1-5.654-13.65l63.974-63.988a7.992 7.992 0 0 1 11.306 0 7.994 7.994 0 0 1 0 11.308l-63.972 63.99a7.98 7.98 0 0 1-5.654 2.34zM384.052 360.064a7.994 7.994 0 0 1-5.654-13.65l63.974-63.988a7.992 7.992 0 0 1 11.306 0 7.992 7.992 0 0 1 0 11.306l-63.972 63.99a7.974 7.974 0 0 1-5.654 2.342zM384.052 296.09a7.976 7.976 0 0 1-5.654-2.344 7.992 7.992 0 0 1 0-11.306l63.974-63.99a7.992 7.992 0 0 1 11.306 0 7.994 7.994 0 0 1 0 11.308l-63.972 63.988a7.96 7.96 0 0 1-5.654 2.344zM711.914 831.868a7.994 7.994 0 0 1-7.996-8v-175.926a7.994 7.994 0 0 1 7.996-7.996 7.992 7.992 0 0 1 7.998 7.996v175.926c0 4.422-3.576 8-7.998 8zM807.876 831.868a7.994 7.994 0 0 1-7.996-8v-175.926c0-4.418 3.576-7.996 7.996-7.996s7.996 3.578 7.996 7.996v175.926c0 4.422-3.578 8-7.996 8zM711.914 480.012a7.992 7.992 0 0 1-7.996-7.996v-159.934a7.992 7.992 0 0 1 7.996-7.996 7.992 7.992 0 0 1 7.998 7.996v159.934a7.992 7.992 0 0 1-7.998 7.996zM807.876 480.012a7.99 7.99 0 0 1-7.996-7.996v-159.934c0-4.42 3.576-7.996 7.996-7.996s7.996 3.576 7.996 7.996v159.934a7.992 7.992 0 0 1-7.996 7.996zM535.988 527.992h-31.986a7.99 7.99 0 0 1-7.996-7.996 7.994 7.994 0 0 1 7.996-7.998h31.986a7.994 7.994 0 0 1 7.998 7.998 7.99 7.99 0 0 1-7.998 7.996zM551.982 623.954h-47.98a7.992 7.992 0 0 1-7.996-7.996 7.99 7.99 0 0 1 7.996-7.996h47.98a7.99 7.99 0 0 1 7.996 7.996 7.992 7.992 0 0 1-7.996 7.996zM1015.788 527.992H983.8a7.99 7.99 0 0 1-7.996-7.996 7.994 7.994 0 0 1 7.996-7.998h31.986c4.42 0 7.998 3.58 7.998 7.998a7.988 7.988 0 0 1-7.996 7.996zM1015.788 623.954h-47.978a7.992 7.992 0 0 1-7.998-7.996 7.99 7.99 0 0 1 7.998-7.996h47.978a7.992 7.992 0 0 1 7.998 7.996 7.994 7.994 0 0 1-7.998 7.996zM759.894 608.18c-23.162 0-39.982-16.808-39.982-39.984 0-23.18 16.82-39.984 39.998-39.984 23.162 0 39.968 16.804 39.968 39.984 0 23.176-16.822 39.984-39.984 39.984z m0.016-63.976c-11.948 0-24.006 7.422-24.006 23.992s12.042 23.988 23.99 23.988c11.95 0 23.99-7.418 23.99-23.988s-12.04-23.992-23.974-23.992z" fill="" /><path d="M896.15 655.688c-51.26 0-121.762-50.54-124.948-52.836a7.998 7.998 0 0 1-1.796-11.168c2.578-3.59 7.59-4.372 11.168-1.792 0.782 0.578 79.092 56.614 123.962 49.164 8.996-1.516 15.682-5.512 20.414-12.242 12.026-17.074 28.314-80.376 11.9-112.024-6.48-12.49-17.274-18.556-33.002-18.556h-0.016c-83.558 0.016-121.214 48.158-121.588 48.626-2.688 3.532-7.732 4.188-11.2 1.516a7.978 7.978 0 0 1-1.516-11.2c1.704-2.246 42.92-54.92 134.302-54.936h0.016c21.646 0 37.968 9.402 47.2 27.184 20.476 39.468 1.016 108.69-13.01 128.604-7.23 10.262-17.618 16.586-30.878 18.804-3.542 0.594-7.228 0.856-11.008 0.856zM623.656 655.688c-3.782 0-7.466-0.262-11.012-0.856-13.26-2.218-23.646-8.542-30.878-18.804-14.024-19.914-33.468-89.136-13.01-128.604 9.23-17.774 25.552-27.176 47.2-27.176h0.016c91.384 0.016 132.602 52.682 134.302 54.928 2.672 3.5 2 8.5-1.5 11.184-3.498 2.64-8.512 2.016-11.198-1.468-0.376-0.5-38.516-48.634-121.606-48.65h-0.016c-15.728 0-26.52 6.066-33.002 18.556-16.414 31.656-0.124 94.942 11.902 112.016 4.732 6.73 11.416 10.726 20.412 12.242 44.92 7.418 123.168-48.586 123.95-49.164a7.984 7.984 0 0 1 11.166 1.792 7.998 7.998 0 0 1-1.794 11.168c-3.188 2.296-73.69 52.836-124.932 52.836z" fill="" /><path d="M839.862 576.192h-47.98a7.992 7.992 0 0 1-7.996-7.996 7.99 7.99 0 0 1 7.996-7.996h47.98a7.99 7.99 0 0 1 7.996 7.996 7.992 7.992 0 0 1-7.996 7.996zM727.908 576.192h-47.978a7.992 7.992 0 0 1-7.998-7.996 7.99 7.99 0 0 1 7.998-7.996h47.978a7.99 7.99 0 0 1 7.996 7.996 7.992 7.992 0 0 1-7.996 7.996z" fill="" /><path d="M330.936 394.47c-4.374 0-8.702-0.834-12.636-2.944-9.434-5.044-14.212-15.634-14.212-31.462 0-15.838 4.78-26.426 14.212-31.47 17.742-9.512 43.342 6.91 46.2 8.816a7.992 7.992 0 0 1 2.218 11.074 8.01 8.01 0 0 1-11.074 2.242c-6.528-4.326-22.428-11.972-29.798-8.028-4.764 2.552-5.764 10.854-5.764 17.368 0 6.512 1 14.814 5.764 17.368 7.418 3.898 23.538-3.88 29.784-8.036 3.638-2.444 8.622-1.468 11.09 2.218a7.996 7.996 0 0 1-2.218 11.088c-2.22 1.482-18.214 11.766-33.566 11.766z" fill="" /><path d="M328.06 341.806a7.992 7.992 0 0 1-7.808-6.302c-0.906-4.24-4.81-25.84 7.934-35.054 12.526-9.02 30.144 1.334 35.922 4.74a7.986 7.986 0 0 1 2.844 10.948c-2.25 3.81-7.17 5.068-10.934 2.842-11.4-6.686-16.946-6.654-18.46-5.576-2.794 2.006-3.17 11.558-1.654 18.742 0.904 4.318-1.844 8.566-6.154 9.48-0.564 0.124-1.126 0.18-1.69 0.18zM339.932 423.474c-4.076 0-8.124-0.992-11.746-3.608-12.744-9.214-8.84-30.814-7.934-35.054 0.938-4.32 5.248-7.06 9.496-6.124 4.31 0.914 7.058 5.162 6.154 9.48-1.516 7.184-1.14 16.726 1.654 18.742 1.516 1.078 7.092 1.11 18.46-5.568 3.748-2.226 8.684-0.984 10.95 2.85a7.994 7.994 0 0 1-2.86 10.94c-4.106 2.422-14.194 8.342-24.174 8.342z" fill="" /><path d="M72.184 543.988a7.994 7.994 0 0 1-7.152-4.422c-2.046-4.078-19.554-40.476-6.452-61.678 3.92-6.326 12.23-13.87 29.598-13.87 52.322 0 85.728 65.598 87.12 68.394a8.006 8.006 0 0 1-3.576 10.73c-3.904 1.964-8.746 0.376-10.73-3.562-0.296-0.61-30.392-59.57-72.812-59.57-12.106 0-15.026 4.724-15.978 6.28-6.386 10.316 0.984 33.766 7.138 46.138a7.994 7.994 0 0 1-3.594 10.714c-1.14 0.566-2.36 0.846-3.562 0.846z" fill="" /><path d="M168.144 543.988a8.176 8.176 0 0 1-3.578-0.844c-3.952-1.968-5.542-6.782-3.576-10.73 1.39-2.796 34.798-68.394 87.12-68.394 17.37 0 25.678 7.544 29.598 13.87 13.104 21.202-4.404 57.6-6.452 61.678a7.994 7.994 0 0 1-14.304-7.136c6.152-12.372 13.526-35.822 7.136-46.138-0.954-1.554-3.874-6.28-15.978-6.28-42.542 0-72.516 58.96-72.812 59.554a8.02 8.02 0 0 1-7.154 4.42z" fill="" /><path d="M743.902 831.868a7.994 7.994 0 0 1-7.998-8v-95.958a7.99 7.99 0 0 1 7.998-7.996 7.99 7.99 0 0 1 7.996 7.996v95.958c0 4.422-3.576 8-7.996 8z" fill="" /><path d="M775.888 416.04a7.992 7.992 0 0 1-7.998-7.996v-95.96c0-4.42 3.578-7.996 7.998-7.996s7.996 3.576 7.996 7.996v95.96a7.99 7.99 0 0 1-7.996 7.996z" fill="" /><path d="M519.996 336.074a7.98 7.98 0 0 1-5.654-2.342l-15.992-15.994a7.994 7.994 0 0 1 0-11.308 7.992 7.992 0 0 1 11.306 0l15.992 15.994a7.994 7.994 0 0 1-5.652 13.65z" fill="" /><path d="M999.792 336.074a7.994 7.994 0 0 1-5.652-13.65l15.992-15.994a7.994 7.994 0 0 1 11.308 0 7.994 7.994 0 0 1 0 11.308l-15.992 15.994a7.98 7.98 0 0 1-5.656 2.342z" fill="" /><path d="M1015.788 831.868a7.976 7.976 0 0 1-5.654-2.344l-15.992-15.992a7.994 7.994 0 0 1 0-11.308 7.994 7.994 0 0 1 11.308 0l15.992 15.992a7.994 7.994 0 0 1-5.654 13.652z" fill="" /><path d="M504.002 831.868a7.994 7.994 0 0 1-5.652-13.652l15.992-15.992a7.992 7.992 0 0 1 11.306 0 7.994 7.994 0 0 1 0 11.308l-15.992 15.992a7.972 7.972 0 0 1-5.654 2.344z" fill="" /><path d="M136.156 831.868a7.994 7.994 0 0 1-7.996-8V599.96a7.992 7.992 0 0 1 7.996-7.996 7.992 7.992 0 0 1 7.998 7.996v223.906a7.994 7.994 0 0 1-7.998 8.002z" fill="" /><path d="M200.13 831.868a7.994 7.994 0 0 1-7.998-8V599.96c0-4.418 3.578-7.996 7.998-7.996s7.996 3.578 7.996 7.996v223.906a7.994 7.994 0 0 1-7.996 8.002z" fill="" /><path d="M128.16 607.96a7.994 7.994 0 0 1-7.996-8v-63.754c0-4.418 3.576-7.996 7.996-7.996s7.996 3.578 7.996 7.996v63.754c0 4.422-3.576 8-7.996 8z" fill="" /><path d="M208.126 607.96a7.994 7.994 0 0 1-7.996-8v-61.472c0-4.418 3.576-7.996 7.996-7.996s7.996 3.578 7.996 7.996v61.472a7.992 7.992 0 0 1-7.996 8z" fill="" /></svg>